<?xml version="1.0" standalone="no"?>
<!DOCTYPE svg PUBLIC "-//W3C//DTD SVG 20010904//EN"
 "http://www.w3.org/TR/2001/REC-SVG-20010904/DTD/svg10.dtd">
<svg version="1.0" xmlns="http://www.w3.org/2000/svg"
 width="64.000000pt" height="64.000000pt" viewBox="0 0 64.000000 64.000000"
 preserveAspectRatio="xMidYMid meet">

<g transform="translate(0.000000,64.000000) scale(0.100000,-0.100000)"
fill="#000000" stroke="none">
<path d="M236 574 c-9 -8 -16 -24 -16 -33 0 -16 -12 -19 -81 -25 -67 -6 -80
-10 -77 -24 2 -10 14 -18 29 -20 l25 -3 11 -186 c15 -244 6 -233 193 -233 187
0 179 -11 193 234 l11 185 25 3 c15 2 27 10 29 20 3 14 -10 18 -77 24 -69 6
-81 9 -81 25 0 35 -28 49 -100 49 -49 0 -73 -4 -84 -16z m144 -39 c0 -12 -13
-15 -60 -15 -47 0 -60 3 -60 15 0 12 13 15 60 15 47 0 60 -3 60 -15z m95 -219
c-4 -84 -10 -169 -14 -187 l-7 -34 -134 0 -134 0 -7 33 c-4 18 -10 102 -14
187 l-7 155 162 0 162 0 -7 -154z"/>
<path d="M225 398 c-3 -8 -4 -66 -3 -129 2 -93 6 -114 18 -114 13 0 15 20 15
124 0 91 -3 125 -12 128 -7 3 -15 -2 -18 -9z"/>
<path d="M305 398 c-3 -8 -4 -66 -3 -129 2 -93 6 -114 18 -114 13 0 15 20 15
124 0 91 -3 125 -12 128 -7 3 -15 -2 -18 -9z"/>
<path d="M385 398 c-3 -8 -4 -66 -3 -129 2 -93 6 -114 18 -114 13 0 15 20 15
124 0 91 -3 125 -12 128 -7 3 -15 -2 -18 -9z"/>
</g>
</svg>
